<svg width="360" height="360" viewBox="0 0 360 360" fill="none" xmlns="http://www.w3.org/2000/svg">
<path d="M272.823 199.654C265.995 215.641 252.598 223.634 232.645 223.634C219.868 223.634 209.309 219.606 200.956 211.538C192.616 203.483 188.439 193.135 188.439 180.506C188.439 167.295 192.715 156.526 201.266 148.173C209.817 139.82 220.587 135.644 233.562 135.644C251.235 135.644 263.962 143.525 271.782 159.24L331.988 136.994C325.06 122.086 315.443 109.866 303.112 100.385C284.151 85.8236 261.484 78.5365 235.111 78.5365C203.992 78.5365 177.93 88.3022 156.911 107.821C135.893 127.34 125.384 151.569 125.384 180.506C125.384 209.246 135.633 233.139 156.143 252.175C176.641 271.211 202.456 280.729 233.575 280.729C263.454 280.729 287.769 272.326 306.52 255.534C312.568 250.118 317.86 243.921 322.42 236.957L272.823 199.654Z" fill="#43B07E"/>
<path d="M166.59 136.747L140.838 280.729H71.0897L96.8425 136.747H166.59Z" fill="#43B07E"/>
<path d="M289.17 233.71C275.81 245.681 258.485 251.667 237.193 251.667C215.022 251.667 196.631 244.888 182.02 231.33C167.408 217.772 160.109 200.744 160.109 180.271C160.109 159.649 167.594 142.385 182.577 128.48C197.548 114.575 216.125 107.623 238.296 107.623C257.084 107.623 273.232 112.816 286.753 123.189C295.54 129.943 299.741 136.499 304.673 147.107L332 137.019C325.072 122.11 315.455 109.891 303.124 100.41C284.312 85.9599 261.843 78.6852 235.719 78.5737V78.5613H235.124H38.3101L33.0927 107.623H157.159C157.085 107.697 156.998 107.759 156.911 107.834C147.542 116.533 140.267 126.175 135.075 136.759H131.27L105.517 280.741H140.838L147.555 243.203C150.194 246.301 153.032 249.312 156.131 252.2C176.629 271.236 202.443 280.753 233.562 280.753C263.442 280.753 287.757 272.351 306.507 255.558C312.555 250.143 317.847 243.946 322.408 236.981L300.497 220.499C297.25 225.431 293.482 229.855 289.17 233.71Z" fill="#34485C"/>
<path d="M219.149 136.747L238.681 107.611H33.0803L27.9 136.747" fill="#43B07E"/>
</svg>
